<?xml version="1.0" standalone="no"?>
<!DOCTYPE svg PUBLIC "-//W3C//DTD SVG 20010904//EN"
 "http://www.w3.org/TR/2001/REC-SVG-20010904/DTD/svg10.dtd">
<svg version="1.0" xmlns="http://www.w3.org/2000/svg"
 width="840.000000pt" height="494.000000pt" viewBox="0 0 840.000000 494.000000"
 preserveAspectRatio="xMidYMid meet">

<g transform="translate(0.000000,494.000000) scale(0.100000,-0.100000)"
fill="#000000" stroke="none">
<path d="M1830 4248 c-162 -61 -308 -117 -325 -124 -16 -6 -111 -42 -210 -79
-99 -36 -218 -81 -265 -100 -47 -18 -131 -50 -187 -70 l-103 -38 0 -784 c0
-432 3 -783 8 -781 4 2 68 27 142 56 74 29 151 60 170 68 19 9 60 25 90 37
l55 22 2 620 c2 341 3 629 3 640 0 17 16 24 118 48 327 79 412 100 585 142
207 50 222 52 231 30 3 -9 6 -430 6 -936 0 -760 -2 -920 -13 -925 -14 -5 -211
19 -657 81 -140 20 -302 42 -360 50 -58 8 -152 22 -209 30 -98 15 -140 15 -89
0 13 -4 181 -66 373 -137 522 -193 643 -238 720 -265 39 -14 79 -29 90 -34 11
-5 46 -18 77 -29 l57 -21 283 81 c156 45 329 96 386 113 l102 30 0 1082 0
1081 -197 58 c-109 32 -218 64 -243 72 -173 52 -321 94 -332 93 -7 0 -146 -51
-308 -111z"/>
<path d="M4895 3843 c-92 -25 -165 -93 -190 -177 -9 -29 -15 -90 -15 -148 0
-95 -1 -98 -25 -104 -13 -3 -47 -4 -75 -2 l-50 3 0 -52 0 -52 73 -3 72 -3 3
-372 2 -373 65 0 65 0 0 375 0 375 101 0 100 0 -3 52 -3 51 -80 -2 c-117 -3
-115 -5 -115 98 1 113 12 157 49 195 28 27 38 31 89 31 31 0 66 -2 76 -5 18
-5 19 0 17 50 -2 30 -4 56 -5 58 -6 6 -132 11 -151 5z"/>
<path d="M5405 3832 c-32 -11 -66 -33 -97 -63 -60 -60 -78 -118 -78 -250 0
-112 -1 -113 -93 -108 l-52 3 -3 -51 -3 -52 73 -3 73 -3 3 -372 2 -373 65 0
65 0 0 375 0 375 100 0 100 0 0 50 0 50 -101 0 -101 0 3 118 c4 103 7 121 27
150 36 50 75 66 147 59 l61 -6 0 52 c-1 46 -4 52 -26 58 -43 12 -113 8 -165
-9z"/>
<path d="M5722 3790 c-28 -27 -29 -79 -1 -114 46 -58 149 -19 149 57 0 69 -96
105 -148 57z"/>
<path d="M3699 3766 c-183 -39 -320 -165 -395 -366 -26 -70 -27 -85 -28 -240
-1 -183 5 -211 62 -330 101 -208 324 -316 580 -282 144 19 238 66 327 164 111
121 150 241 150 463 0 173 -17 245 -82 353 -67 110 -160 186 -280 228 -65 22
-248 28 -334 10z m323 -143 c158 -74 238 -229 238 -461 0 -235 -74 -379 -238
-459 -74 -37 -79 -38 -186 -38 -103 0 -115 2 -176 31 -84 40 -151 109 -195
198 -42 86 -55 149 -55 270 0 167 47 292 144 384 92 88 161 112 306 109 83 -2
104 -7 162 -34z"/>
<path d="M6470 3429 c-100 -8 -155 -26 -220 -74 -115 -85 -170 -211 -170 -394
0 -223 128 -384 328 -413 93 -14 208 -1 269 30 34 18 36 21 37 75 1 32 0 57
-3 57 -2 0 -29 -12 -60 -27 -49 -24 -68 -28 -146 -28 -102 0 -140 14 -201 73
-108 105 -125 334 -34 467 89 129 249 171 387 101 29 -14 55 -26 58 -26 3 0 5
29 5 64 0 64 0 64 -34 76 -59 19 -128 25 -216 19z"/>
<path d="M7134 3412 c-99 -42 -171 -114 -218 -220 -26 -58 -30 -82 -34 -181
-3 -71 0 -135 8 -170 28 -125 100 -219 205 -267 103 -47 295 -41 405 14 l55
27 3 59 c2 32 -1 56 -5 55 -4 -2 -38 -19 -74 -37 -124 -62 -283 -54 -372 19
-47 39 -87 124 -90 192 l-2 52 303 3 302 2 0 78 c0 173 -65 302 -182 363 -59
32 -241 38 -304 11z m222 -101 c76 -34 120 -101 125 -191 l4 -55 -233 -3
c-189 -2 -233 0 -238 11 -9 25 38 130 78 173 74 80 176 105 264 65z"/>
<path d="M5720 2985 l0 -425 65 0 65 0 0 425 0 425 -65 0 -65 0 0 -425z"/>
<path d="M1145 1584 c-7 -3 -10 -195 -9 -552 l1 -547 549 0 549 0 3 548 2 547
-529 0 c-291 0 -535 2 -543 4 -7 3 -17 3 -23 0z m611 -547 c-1 -409 -1 -412
-22 -415 -16 -2 -351 51 -467 74 l-27 6 2 336 3 336 245 41 c135 23 250 40
256 38 7 -3 10 -133 10 -416z m369 -2 l0 -320 -175 0 -175 0 0 45 0 45 133 3
c108 2 132 5 132 17 0 13 -23 15 -136 15 l-135 0 3 28 3 27 133 3 c88 2 132 6
130 13 -2 7 -53 11 -133 12 l-130 2 -3 28 -3 27 135 0 c113 0 136 2 136 15 0
12 -24 15 -132 17 l-133 3 0 25 0 25 133 3 c108 2 132 5 132 17 0 13 -23 15
-136 15 l-135 0 3 28 3 27 133 3 c90 2 132 6 130 13 -2 7 -51 12 -133 13 -129
1 -130 1 -133 25 -2 13 2 27 9 32 7 4 67 7 133 7 79 0 121 3 124 10 2 8 -38
12 -130 14 l-133 3 -3 43 -3 42 178 -2 178 -3 0 -320z"/>
<path d="M1586 1103 c-9 -49 -16 -96 -16 -105 0 -10 -4 -18 -9 -18 -4 0 -17
45 -27 100 -17 90 -21 100 -41 100 -24 0 -38 -32 -49 -116 -6 -52 -18 -83 -28
-73 -3 3 -11 41 -17 85 -12 89 -14 94 -36 94 -17 0 -14 -37 15 -180 16 -78 20
-85 42 -85 22 0 25 6 41 83 9 45 19 85 22 89 9 9 24 -35 32 -97 9 -71 20 -90
49 -90 21 0 25 6 31 43 4 23 18 89 31 145 13 57 24 106 24 108 0 2 -11 4 -24
4 -22 0 -25 -6 -40 -87z"/>
<path d="M2370 1588 c0 -2 -1 -250 -1 -551 l0 -548 543 1 c299 0 546 0 551 0
4 0 6 246 5 548 l-3 547 -547 3 c-302 1 -548 1 -548 0z m618 -538 c1 -227 -1
-417 -5 -421 -5 -4 -118 12 -253 35 l-245 41 0 340 0 340 215 36 c118 20 224
39 235 42 52 14 50 33 53 -413z m372 -5 l0 -325 -181 0 -180 0 3 33 c3 32 3
32 66 35 l62 3 0 34 0 34 -62 3 c-48 2 -63 7 -63 18 0 11 15 16 61 18 l62 3
-1 34 -1 34 -60 3 c-48 2 -61 7 -64 20 -3 14 7 17 60 20 l63 3 3 38 2 37 -66
0 c-57 0 -65 2 -62 18 3 13 15 17 53 19 28 1 56 2 63 2 9 1 12 12 10 34 -3 32
-4 32 -63 37 -44 4 -60 9 -60 20 0 11 16 16 60 20 l60 5 0 35 0 35 -60 0 c-58
0 -60 1 -63 28 l-3 27 180 0 181 0 0 -325z"/>
<path d="M2783 1188 c-6 -7 -16 -30 -23 -51 -15 -47 -29 -44 -49 11 -12 33
-20 42 -38 42 -30 0 -29 -7 6 -79 l29 -60 -29 -60 c-35 -73 -36 -83 -7 -79 16
2 26 16 37 50 18 53 30 52 51 -2 17 -44 25 -53 50 -57 26 -4 25 1 -10 72 -16
33 -30 68 -30 78 0 10 14 44 30 77 17 33 30 62 30 65 0 10 -38 5 -47 -7z"/>
<path d="M3165 1311 c-3 -2 -5 -20 -5 -38 l0 -34 68 3 67 3 0 35 0 35 -63 1
c-34 0 -65 -2 -67 -5z"/>
<path d="M3162 1164 l3 -36 65 0 65 0 0 33 0 34 -68 3 -68 3 3 -37z"/>
<path d="M3160 1050 l0 -41 68 3 67 3 0 35 0 35 -67 3 -68 3 0 -41z"/>
<path d="M3164 971 c-2 -2 -4 -20 -4 -38 l0 -34 67 3 67 3 1 34 0 34 -63 1
c-35 1 -66 -1 -68 -3z"/>
<path d="M3162 823 l3 -36 63 -1 c34 -1 63 1 63 4 1 3 3 20 5 38 l4 32 -71 0
-70 0 3 -37z"/>
<path d="M3627 1583 c-7 -7 -10 -1087 -3 -1094 2 -2 250 -3 550 -1 l546 2 0
550 0 550 -543 0 c-299 0 -547 -3 -550 -7z m614 -223 c2 -119 2 -120 12 -120
4 0 12 0 17 0 6 0 10 5 10 10 0 6 -7 10 -15 10 -8 0 -15 9 -15 20 0 19 7 20
128 21 146 2 225 -1 232 -8 7 -7 11 -384 4 -406 -3 -10 -13 -17 -22 -15 -15 3
-18 26 -22 192 l-5 189 -107 1 c-58 0 -104 -2 -101 -6 2 -5 46 -8 98 -8 l94 0
3 -222 c2 -169 0 -225 -10 -234 -15 -16 -257 -18 -285 -2 -17 9 -18 6 -17 -29
1 -21 2 -59 1 -85 -1 -45 -2 -48 -28 -48 -32 0 -363 54 -436 71 l-47 11 2 336
3 336 60 12 c34 7 108 20 165 29 58 9 137 22 175 29 115 22 105 30 106 -84z"/>
<path d="M4310 1250 c0 -6 7 -10 15 -10 8 0 15 2 15 4 0 2 -7 6 -15 10 -8 3
-15 1 -15 -4z"/>
<path d="M4320 1153 l0 -48 45 0 c37 0 45 3 45 18 0 23 -52 77 -74 77 -12 0
-16 -11 -16 -47z"/>
<path d="M4242 1083 l1 -109 56 7 c60 8 101 41 101 80 0 16 -7 19 -55 19 l-55
0 0 50 c0 28 -4 50 -9 50 -5 0 -16 3 -24 6 -13 5 -15 -11 -15 -103z"/>
<path d="M3920 1035 c0 -127 1 -135 19 -135 17 0 20 8 23 48 3 41 6 47 26 48
68 4 105 73 73 136 -15 31 -19 33 -78 36 l-63 3 0 -136z m88 89 c12 -8 22 -25
22 -36 0 -27 -28 -58 -52 -58 -15 0 -18 8 -18 48 0 65 9 74 48 46z"/>
<path d="M4242 915 c-2 -23 0 -27 10 -17 8 8 45 12 105 12 74 0 93 3 93 14 0
12 -22 15 -103 18 l-103 3 -2 -30z"/>
<path d="M4243 850 c-2 -19 4 -20 103 -20 86 0 104 3 104 15 0 12 -17 15 -89
15 -49 0 -96 2 -103 5 -9 4 -14 -2 -15 -15z"/>
<path d="M4900 1040 l0 -550 550 0 550 0 0 550 0 550 -550 0 -550 -1 0 -549z
m620 315 c0 -96 5 -117 23 -98 7 7 314 12 335 5 9 -3 12 -51 12 -193 0 -182
-1 -189 -20 -189 -19 0 -20 8 -22 166 l-3 166 -152 -1 c-94 0 -153 3 -153 9 0
6 -4 10 -10 10 -5 0 -10 -7 -10 -15 0 -13 24 -15 155 -15 90 0 155 -4 155 -9
0 -6 -28 -31 -62 -57 -35 -27 -81 -63 -102 -81 -22 -18 -45 -33 -51 -33 -6 0
-27 14 -47 30 -33 27 -37 37 -41 83 -2 30 -4 17 -3 -31 0 -66 3 -82 14 -77 8
3 25 -4 39 -15 14 -11 31 -20 36 -20 6 0 55 34 109 75 54 41 100 75 103 75 3
0 4 -80 3 -177 l-3 -177 -139 2 c-77 1 -143 5 -147 9 -5 5 -10 40 -12 78 -1
39 -4 -4 -5 -94 l-2 -163 -47 6 c-27 4 -70 11 -98 16 -27 5 -120 21 -205 35
-85 15 -156 28 -158 30 -6 6 -3 667 2 673 6 6 443 80 479 81 l27 1 0 -105z"/>
<path d="M5190 1142 c-49 -50 -51 -159 -2 -214 17 -21 71 -33 101 -23 82 26
105 171 39 242 -33 35 -100 32 -138 -5z m115 -15 c53 -45 40 -178 -19 -193
-40 -10 -74 4 -91 36 -38 73 1 179 67 180 9 0 29 -10 43 -23z"/>
<path d="M6175 1578 c-3 -7 -4 -256 -3 -553 l3 -540 550 0 550 0 3 553 2 552
-550 0 c-431 0 -552 -3 -555 -12z m613 -541 c2 -412 2 -417 -18 -417 -19 0
-401 63 -463 76 l-27 6 2 336 3 337 240 41 c132 23 245 41 250 39 6 -1 11
-151 13 -418z m308 323 c8 0 14 -7 14 -15 0 -10 10 -15 30 -15 l30 0 0 -89 c0
-63 -4 -91 -12 -94 -10 -3 -10 -7 0 -19 9 -11 12 -41 10 -95 -3 -70 -5 -78
-23 -78 -18 0 -20 8 -23 83 -2 58 1 89 10 100 11 13 11 14 -2 10 -13 -4 -15
-39 -18 -221 l-2 -217 -151 0 -150 0 3 48 3 47 105 2 c74 1 105 5 105 13 0 8
-31 12 -105 14 l-105 1 -3 27 -3 27 107 3 c75 2 109 7 112 16 3 9 -23 12 -107
12 l-111 0 0 30 0 30 111 0 c84 0 110 3 107 13 -3 8 -36 13 -108 15 -107 3
-122 9 -112 44 4 17 13 19 111 17 84 -1 106 1 106 12 0 11 -23 14 -105 14
l-105 0 -3 27 -3 27 107 3 c75 2 109 7 112 16 3 9 -23 12 -107 12 l-111 0 0
30 0 29 108 3 c63 2 107 7 107 13 0 6 -44 11 -107 13 l-108 3 0 44 0 44 123 3
c67 2 128 2 135 1 8 -2 20 -3 28 -3z m72 -524 c-3 -75 -5 -81 -25 -84 -22 -3
-23 -1 -23 86 0 92 9 112 38 89 9 -7 12 -34 10 -91z"/>
<path d="M6580 1090 c0 -49 -3 -90 -7 -90 -5 0 -28 38 -51 85 -37 71 -48 85
-68 85 l-24 0 0 -135 c0 -127 1 -135 20 -135 18 0 20 8 22 93 l3 92 50 -97
c41 -81 54 -98 72 -98 23 0 23 1 23 145 0 138 -1 145 -20 145 -19 0 -20 -7
-20 -90z"/>
</g>
</svg>
